<svg viewBox="0 0 61 61" fill="none" xmlns="http://www.w3.org/2000/svg">
<path d="M36.6152 34.6855C39.237 34.6855 41.3633 36.8118 41.3633 39.4336C41.3632 39.767 41.3291 40.0923 41.2636 40.4062L53.5429 35.0801L53.5576 35.0732C55.9733 34.0719 58.7649 35.2282 59.7636 37.6445H59.7627C60.7566 40.0437 59.6228 42.8104 57.2422 43.8291L40.6767 51.7861C40.6626 51.7929 40.6482 51.7995 40.6338 51.8057C39.3534 52.3473 37.9785 52.6279 36.5879 52.6279H21.3271C20.8372 52.628 20.3565 52.7582 19.9345 53.0068L19.9336 53.0078L16.4023 55.083L16.8437 55.7891C16.986 56.0167 17.0305 56.2927 16.9677 56.5537C16.9049 56.8146 16.739 57.0388 16.5088 57.1768L11.8261 59.9824C11.3524 60.2662 10.7389 60.1123 10.455 59.6387C10.1713 59.1649 10.325 58.5504 10.7988 58.2666L14.6064 55.9854L6.2529 42.6191L1.44626 45.0195C0.952165 45.266 0.352054 45.0653 0.105438 44.5713C-0.141153 44.0772 0.0595669 43.4771 0.55368 43.2305L6.1738 40.4248L6.26071 40.3857C6.70322 40.2149 7.21262 40.3794 7.46872 40.7891L7.87302 41.4365L17.2802 35.9648C18.7204 35.1256 20.3592 34.6856 22.0254 34.6855H36.6152ZM22.0254 36.6855C20.7109 36.6856 19.4199 37.0331 18.2871 37.6934H18.2861L8.93356 43.1328L15.3418 53.3857L18.9199 51.2832C19.6506 50.8528 20.4818 50.628 21.3271 50.6279H36.5879C37.7029 50.6279 38.8061 50.4036 39.8359 49.9707L56.3769 42.0264L56.4267 42.0039C57.8222 41.4254 58.4927 39.8048 57.915 38.4102V38.4092C57.3388 37.0149 55.7192 36.3429 54.3242 36.9209L54.3232 36.9199L38.7002 43.6982C38.071 44.0063 37.3638 44.1805 36.6162 44.1807L25.375 44.1875C24.8231 44.1875 24.3756 43.7403 24.375 43.1885C24.3746 42.6363 24.8219 42.188 25.374 42.1875L36.6142 42.1807H36.6152C38.1322 42.1807 39.3628 40.9504 39.3633 39.4336C39.3633 37.9163 38.1325 36.6855 36.6152 36.6855H22.0254ZM35.6855 0C48.6642 0.000238107 59.1855 10.5213 59.1855 23.5C59.1855 26.6144 58.5785 29.5893 57.4765 32.3125C57.2694 32.8243 56.6866 33.071 56.1748 32.8643C55.6628 32.6571 55.4158 32.0745 55.623 31.5625C56.6303 29.0733 57.1855 26.3526 57.1855 23.5C57.1855 11.6259 47.5596 2.00024 35.6855 2C23.8112 2 14.1855 11.6257 14.1855 23.5C14.1855 26.6974 14.8843 29.7313 16.1357 32.458C16.3658 32.9597 16.1459 33.5536 15.6445 33.7842C15.1426 34.0145 14.5488 33.7938 14.3183 33.292C12.9494 30.3093 12.1855 26.9916 12.1855 23.5C12.1855 10.5212 22.7067 0 35.6855 0ZM35.6855 5.625C36.2376 5.62524 36.6855 6.07286 36.6855 6.625V11.8164C39.0578 11.7948 41.4299 11.6967 43.7861 11.4854C43.1381 10.3224 42.3999 9.22143 41.5742 8.19336C41.2283 7.76278 41.2969 7.13394 41.7275 6.78809C42.1581 6.44235 42.787 6.51088 43.1328 6.94141C44.2065 8.27831 45.1429 9.72406 45.9345 11.2598C46.8264 11.1526 47.7156 11.0295 48.6006 10.8857C49.1456 10.7973 49.6595 11.1678 49.748 11.7129C49.8361 12.2576 49.4665 12.7716 48.9218 12.8604C48.2234 12.9738 47.5227 13.0731 46.8213 13.1641C48.1427 16.3161 48.8921 19.7867 49.0078 23.4375H53.498C54.0501 23.4377 54.498 23.8854 54.498 24.4375C54.498 24.9896 54.0501 25.4373 53.498 25.4375H49.0078C48.9447 27.4277 48.6952 29.3643 48.2666 31.2246C48.1425 31.7625 47.6053 32.0982 47.0674 31.9746C46.5292 31.8506 46.1935 31.3135 46.3174 30.7754C46.7117 29.064 46.9434 27.278 47.0058 25.4375H36.6855V31C36.6855 31.5521 36.2376 31.9998 35.6855 32C35.1332 32 34.6855 31.5523 34.6855 31V25.4375H24.3642C24.4266 27.278 24.6593 29.064 25.0537 30.7754C25.1774 31.3133 24.8415 31.8505 24.3037 31.9746C23.7657 32.0985 23.2286 31.7625 23.1045 31.2246C22.6758 29.3643 22.4254 27.4277 22.3623 25.4375H17.873C17.3207 25.4375 16.873 24.9898 16.873 24.4375C16.873 23.8852 17.3207 23.4375 17.873 23.4375H22.3623C22.478 19.7865 23.2263 16.3153 24.5478 13.1631C23.8486 13.0723 23.1503 12.9735 22.4541 12.8604C21.9092 12.7718 21.5388 12.2578 21.6269 11.7129C21.7155 11.1678 22.2294 10.7973 22.7744 10.8857C23.6577 11.0293 24.5452 11.1517 25.4355 11.2588C26.2272 9.72321 27.1645 8.27821 28.2383 6.94141C28.5841 6.51087 29.213 6.44225 29.6435 6.78809C30.0737 7.134 30.1425 7.76292 29.7968 8.19336C28.9709 9.22168 28.2311 10.3221 27.583 11.4854C29.9391 11.6969 32.3119 11.7938 34.6855 11.8154V6.625C34.6855 6.07272 35.1332 5.625 35.6855 5.625ZM44.7461 13.4023C42.0623 13.671 39.3671 13.7925 36.6855 13.8164V23.4375H47.0068C46.8849 19.8347 46.1049 16.442 44.7461 13.4023ZM26.624 13.4023C25.2652 16.4419 24.4851 19.8347 24.3633 23.4375H34.6855V13.8164C32.0027 13.7924 29.3073 13.6711 26.624 13.4023Z" />
</svg>
