<svg viewBox="0 0 61 61" fill="none" xmlns="http://www.w3.org/2000/svg">
<path d="M20.667 0C21.2193 0 21.667 0.447715 21.667 1V1.87305H30.9688C31.521 1.87305 31.9687 2.32076 31.9688 2.87305V10.3652C31.9688 10.9175 31.521 11.3652 30.9688 11.3652H21.667V14.6719L37.2266 32.5098L44.2734 24.6807C44.4642 24.4688 44.7374 24.3482 45.0225 24.3496C45.3071 24.3513 45.5781 24.4741 45.7666 24.6875L59.8145 40.6094C60.1795 41.0234 60.1404 41.6552 59.7266 42.0205C59.3127 42.3857 58.6809 42.3461 58.3154 41.9326L45.0098 26.8525L38.5508 34.0273L59.8184 58.4072C60.1812 58.8234 60.1378 59.4554 59.7217 59.8184C59.3055 60.1812 58.6735 60.1378 58.3105 59.7217L20.6963 16.6025L1.77832 40.0254C1.43141 40.4549 0.801706 40.5224 0.37207 40.1758C-0.0574364 39.8289 -0.124963 39.1992 0.22168 38.7695L19.667 14.6943V1C19.667 0.447725 20.1147 1.64926e-05 20.667 0ZM19.874 26.6133C20.2107 26.1757 20.8386 26.0933 21.2764 26.4297C21.714 26.7663 21.7964 27.3943 21.46 27.832L14.9248 36.3271L14.9238 36.3262C13.8565 37.715 14.3433 39.7331 15.9248 40.4834H15.9258L26.8965 45.6816C28.8468 46.6055 30.0936 48.5725 30.0938 50.7314C30.0938 53.8165 27.5929 56.3201 24.5049 56.3203H1C0.447715 56.3203 0 55.8726 0 55.3203C0.000225457 54.7682 0.447854 54.3203 1 54.3203H24.5049C26.4877 54.3201 28.0938 52.7126 28.0938 50.7314C28.0936 49.346 27.2932 48.0826 26.041 47.4893L15.0693 42.291C12.3344 40.9947 11.4953 37.5065 13.3398 35.1074L19.874 26.6133ZM21.667 9.36523H29.9688V3.87305H21.667V9.36523Z" />
</svg>
