<svg viewBox="0 0 61 60" fill="none" xmlns="http://www.w3.org/2000/svg">
<path d="M23.4766 51.6113C24.0288 51.6113 24.4766 52.059 24.4766 52.6113V53.4551H35.5879V52.6113C35.5879 52.0591 36.0356 51.6114 36.5879 51.6113H59.0645C59.6167 51.6113 60.0645 52.059 60.0645 52.6113C60.0642 56.2314 57.0846 59.1416 53.4453 59.1416H6.61914C2.9799 59.1416 0.000223963 56.2314 0 52.6113C0 52.059 0.447715 51.6113 1 51.6113H23.4766ZM2.11523 53.6113C2.57902 55.6221 4.40845 57.1416 6.61914 57.1416H53.4453C55.6561 57.1416 57.4865 55.6222 57.9502 53.6113H37.5879V54.4551C37.5874 55.007 37.1399 55.4551 36.5879 55.4551H23.4766C22.9246 55.4551 22.477 55.007 22.4766 54.4551V53.6113H2.11523ZM15.0479 12.9014C15.6001 12.9014 16.0479 13.3491 16.0479 13.9014C16.0478 14.4536 15.6001 14.9014 15.0479 14.9014H6.61914C5.0866 14.9014 3.87311 16.1184 3.87305 17.5879V48.9248L3.86816 49.0264C3.81704 49.5307 3.39088 49.9248 2.87305 49.9248C2.35522 49.9248 1.92905 49.5307 1.87793 49.0264L1.87305 48.9248V17.5879C1.87311 14.9838 4.01232 12.9014 6.61914 12.9014H15.0479ZM53.4453 12.9014C56.0521 12.9014 58.1913 14.9838 58.1914 17.5879V48.9248C58.1911 49.4769 57.7435 49.9248 57.1914 49.9248C56.6393 49.9248 56.1917 49.4768 56.1914 48.9248V17.5879C56.1913 16.1184 54.9779 14.9014 53.4453 14.9014H45.0166C44.4644 14.9013 44.0167 14.4536 44.0166 13.9014C44.0166 13.3491 44.4643 12.9014 45.0166 12.9014H53.4453ZM30.7744 0C32.5981 6.7616e-05 35.2468 0.567243 37.3691 2.05371C39.5458 3.57826 41.1568 6.07615 40.7236 9.75195L40.5791 11.4482C40.5783 11.4889 40.575 11.5289 40.5693 11.5684L40.0732 17.4277C40.0725 17.4368 40.0713 17.446 40.0703 17.4551C39.7874 19.9624 39.1489 21.9589 38.1406 23.4863C37.7053 24.1457 37.2059 24.7071 36.6514 25.1807V27.7256C36.6514 27.764 36.6489 27.8027 36.6445 27.8408L35.6514 27.7256C36.5988 27.8353 36.6426 27.8411 36.6445 27.8418V27.8447C36.6443 27.8463 36.6438 27.8486 36.6436 27.8506C36.6431 27.8544 36.6423 27.8591 36.6416 27.8643C36.6402 27.8752 36.6382 27.8897 36.6357 27.9062C36.6308 27.9394 36.6242 27.9842 36.6143 28.0381C36.5944 28.1459 36.5625 28.2935 36.5146 28.4697C36.4192 28.821 36.2544 29.2982 35.9756 29.8057C35.5351 30.6074 34.8002 31.4886 33.623 32.0547C33.6392 32.1006 33.655 32.1479 33.6709 32.1963C33.8681 32.5648 34.1442 33.0104 34.5312 33.4795C35.4208 34.5575 36.9029 35.7994 39.334 36.5635V29.5693C39.334 29.2511 39.4857 28.9511 39.7422 28.7627C39.9987 28.5744 40.3302 28.52 40.6338 28.6152L45.5459 30.1562C49.5046 31.399 52.3346 34.8551 52.7197 38.9473L53.4766 46.9863C53.5283 47.5362 53.1241 48.0244 52.5742 48.0762C52.0244 48.1278 51.5371 47.7236 51.4854 47.1738L50.7285 39.1348C50.4203 35.8588 48.1515 33.0705 44.9463 32.0645L41.334 30.9307V37.8643C41.3339 38.1668 41.1965 38.4528 40.9609 38.6426C40.7253 38.8323 40.4167 38.9052 40.1211 38.8408C37.1742 38.1972 35.1654 36.9401 33.8193 35.6475C33.6642 36.1748 33.4067 36.7057 33.0049 37.209C33.0506 37.3897 33.1076 37.6122 33.1709 37.8691C33.3493 38.5935 33.5879 39.5919 33.8262 40.6846C34.294 42.83 34.7929 45.4694 34.793 47.0801C34.793 47.6322 34.345 48.0798 33.793 48.0801C33.2407 48.0801 32.793 47.6324 32.793 47.0801C32.7928 45.7206 32.3476 43.291 31.8721 41.1104C31.6386 40.0399 31.4049 39.06 31.2295 38.3477C31.1419 37.9918 31.0685 37.7032 31.0176 37.5039C30.9921 37.4043 30.9725 37.3265 30.959 37.2744L30.9395 37.2012C30.9391 37.1999 30.9387 37.1989 30.9385 37.1982V37.1973C30.8472 36.8505 30.9486 36.481 31.2041 36.2295C32.0181 35.4283 32.1142 34.4473 31.958 33.5479C31.9231 33.3469 31.8746 33.1562 31.8223 32.9805C31.7704 32.8789 31.7203 32.7832 31.6777 32.6914C31.6738 32.683 31.6708 32.6743 31.667 32.666C30.6894 32.8508 29.7726 32.8317 29.0605 32.7539C28.8094 32.7265 28.5805 32.689 28.3789 32.6523C28.3737 32.6638 28.3696 32.6759 28.3643 32.6875C28.324 32.7752 28.2762 32.8662 28.2275 32.9629C28.1755 33.1415 28.1281 33.336 28.0938 33.541C27.9433 34.4408 28.0437 35.4256 28.8604 36.2295C29.1168 36.4819 29.2178 36.8526 29.125 37.2002V37.2012C29.1248 37.2019 29.1244 37.2035 29.124 37.2051L29.1045 37.2783C29.0908 37.3303 29.0707 37.4075 29.0449 37.5068C28.9932 37.7061 28.919 37.9957 28.8301 38.3516C28.6521 39.0638 28.4146 40.0432 28.1777 41.1133C27.695 43.2942 27.2443 45.7224 27.2441 47.0801C27.2441 47.6323 26.7964 48.08 26.2441 48.0801C25.6919 48.0801 25.2441 47.6324 25.2441 47.0801C25.2443 45.4676 25.7508 42.8267 26.2256 40.6816C26.4674 39.5889 26.7086 38.5907 26.8896 37.8662C26.9537 37.6099 27.0112 37.3875 27.0576 37.207C26.6548 36.7025 26.3958 36.1703 26.2393 35.6416C24.8982 36.9364 22.8935 38.1964 19.9443 38.8408C19.6486 38.9054 19.3393 38.8324 19.1035 38.6426C18.8679 38.4528 18.7305 38.1668 18.7305 37.8643V30.9297L15.0967 32.0693H15.0957C11.8886 33.0734 9.61586 35.8639 9.30762 39.1416L8.55078 47.1768C8.49892 47.7265 8.0117 48.1299 7.46191 48.0781C6.91213 48.0263 6.50882 47.5391 6.56055 46.9893L7.31641 38.9551C7.70135 34.86 10.5367 31.4015 14.498 30.1611L19.4316 28.6152C19.7352 28.5201 20.0658 28.5745 20.3223 28.7627C20.5787 28.9511 20.7304 29.2511 20.7305 29.5693V36.5635C23.1582 35.7996 24.6333 34.559 25.5166 33.4824C25.9053 33.0086 26.1795 32.5581 26.375 32.1875C26.3893 32.1435 26.4035 32.1005 26.418 32.0586C25.2393 31.4916 24.5081 30.6058 24.0723 29.8008C23.797 29.2924 23.6366 28.8146 23.5439 28.4629C23.4974 28.286 23.4672 28.1373 23.4482 28.0293C23.4388 27.9754 23.4314 27.9306 23.4268 27.8975C23.4245 27.8811 23.4232 27.8673 23.4219 27.8564C23.4212 27.851 23.4204 27.8458 23.4199 27.8418C23.4197 27.84 23.4191 27.8384 23.4189 27.8369V27.833C23.4214 27.8323 23.47 27.8268 24.4131 27.7256L23.4189 27.832C23.4152 27.7968 23.4131 27.7611 23.4131 27.7256V25.2012C22.8477 24.723 22.3398 24.1541 21.8975 23.4844C20.8887 21.9568 20.2498 19.9605 19.9668 17.4531C19.966 17.4464 19.9645 17.4394 19.9639 17.4326L19.21 9.2627L19.2109 9.26172C18.9951 7.01368 19.7623 5.33098 20.8633 4.21875C21.6702 3.40368 22.6627 2.89059 23.5557 2.69238C24.1355 1.35149 25.9929 0 29.2646 0H30.7744ZM29.2646 2C25.7402 2 25.3574 3.66929 25.3574 3.59863C25.3574 4.15075 24.9095 4.59837 24.3574 4.59863C23.9019 4.59863 23.0175 4.8856 22.2852 5.625C21.5947 6.32243 21.0417 7.42401 21.2012 9.07422L21.2021 9.0791L21.4395 11.6553C22.1314 11.4671 22.6544 11.0778 23.043 10.668C23.3164 10.3795 23.5152 10.088 23.6445 9.87012C23.7085 9.76234 23.7543 9.67494 23.7822 9.61816C23.7961 9.58992 23.8055 9.56884 23.8105 9.55762L23.8154 9.54785C24.0296 9.04202 24.6122 8.80349 25.1201 9.01465C25.6298 9.22677 25.871 9.81151 25.6592 10.3213L24.7363 9.9375C25.5987 10.2963 25.6556 10.3203 25.6592 10.3223L25.6582 10.3232V10.3252C25.6576 10.3266 25.6561 10.3284 25.6553 10.3301C25.6538 10.3335 25.6524 10.338 25.6504 10.3428C25.6461 10.3526 25.6406 10.3658 25.6338 10.3809C25.6201 10.4111 25.6013 10.4519 25.5771 10.501C25.5288 10.5992 25.4578 10.7329 25.3643 10.8906C25.178 11.2045 24.8929 11.6233 24.4941 12.0439C23.8586 12.7142 22.9136 13.4056 21.625 13.665L21.9541 17.2285L22.0059 17.6533C22.2858 19.7406 22.8334 21.2719 23.5664 22.3818C23.9613 22.9798 24.4188 23.4677 24.9375 23.8613C24.9831 23.8895 25.0261 23.9212 25.0664 23.9561C25.5257 24.2845 26.0311 24.5434 26.583 24.7402C27.1026 24.926 27.3736 25.4977 27.1885 26.0176C27.003 26.5375 26.4311 26.8091 25.9111 26.624C25.7422 26.5638 25.5763 26.4974 25.4131 26.4277V27.6523C25.4145 27.6613 25.4159 27.6719 25.418 27.6836C25.4284 27.7431 25.4468 27.8362 25.4775 27.9531C25.5398 28.1893 25.6484 28.5113 25.8311 28.8486C26.1893 29.5101 26.8209 30.2215 27.9932 30.5107C28.0093 30.5147 28.0252 30.5197 28.041 30.5244C28.0485 30.5267 28.056 30.5288 28.0635 30.5312V30.5303C28.0649 30.5307 28.0682 30.5317 28.0732 30.5332C28.084 30.5365 28.1029 30.5424 28.1289 30.5498C28.1814 30.5647 28.2638 30.5872 28.3711 30.6123C28.5866 30.6627 28.9007 30.7244 29.2783 30.7656C30.0425 30.849 31.0197 30.8428 31.9707 30.5312C31.9878 30.5256 32.0052 30.5212 32.0225 30.5166C32.0293 30.5148 32.0361 30.5124 32.043 30.5107C33.2185 30.2211 33.8577 29.507 34.2227 28.8428C34.4085 28.5045 34.5207 28.1818 34.585 27.9453C34.6167 27.8285 34.6365 27.7354 34.6475 27.6758C34.6491 27.6667 34.6501 27.6578 34.6514 27.6504V26.4189C34.4802 26.4927 34.3064 26.5626 34.1289 26.626C33.6088 26.8116 33.0363 26.5406 32.8506 26.0205C32.665 25.5005 32.9362 24.928 33.4561 24.7422C34.0134 24.5432 34.5232 24.2809 34.9863 23.9473C35.0302 23.9081 35.0776 23.8728 35.1279 23.8418C35.6351 23.4518 36.084 22.9711 36.4717 22.3838C37.253 21.2 37.8228 19.5368 38.083 17.2314L38.4844 12.4863C33.8167 12.6448 30.7883 11.5693 28.875 10.3213C27.8471 9.65075 27.1623 8.94385 26.7275 8.3877C26.5106 8.11011 26.3562 7.87028 26.2529 7.69238C26.2014 7.60356 26.1616 7.53002 26.1338 7.47461C26.12 7.44702 26.1091 7.42352 26.1006 7.40527C26.0964 7.39632 26.0928 7.3884 26.0898 7.38184C26.0885 7.37876 26.0871 7.37557 26.0859 7.37305L26.083 7.36719C26.083 7.36623 26.1011 7.3574 27 6.96777L26.082 7.36523C25.8628 6.85868 26.0961 6.26943 26.6025 6.0498C27.1056 5.83196 27.6899 6.06031 27.9131 6.55957L27.9219 6.57812C27.9323 6.59883 27.9522 6.63647 27.9824 6.68848C28.0432 6.79319 28.1464 6.95623 28.3027 7.15625C28.6148 7.55547 29.1407 8.10696 29.9678 8.64648C31.5142 9.65511 34.1924 10.6704 38.6553 10.4775L38.7314 9.58398L38.7354 9.54785C39.0832 6.67938 37.8827 4.85481 36.2217 3.69141C34.4993 2.48525 32.2729 2.00007 30.7744 2H29.2646Z" />
</svg>
