<svg viewBox="0 0 60 61" fill="none" xmlns="http://www.w3.org/2000/svg">
<path d="M13.904 31.8403C14.456 31.8407 14.9039 32.2883 14.904 32.8403V38.3384L15.6091 41.2056H16.6686C17.2207 41.2058 17.6686 41.6534 17.6686 42.2056C17.6686 42.7577 17.2207 43.2053 16.6686 43.2056H15.2565C13.2945 45.3629 13.0862 47.5026 13.0641 50.5708H16.6686C17.2208 50.571 17.6686 51.0186 17.6686 51.5708C17.6685 52.1229 17.2207 52.5706 16.6686 52.5708H11.1393C10.6883 52.5708 10.2956 52.9462 10.2956 53.4438V58.063H24.0417C24.5937 58.0632 25.0416 58.5109 25.0417 59.063C25.0415 59.6149 24.5936 60.0628 24.0417 60.063H10.2175C9.14109 60.063 8.29581 59.1808 8.29559 58.1265V53.4438C8.29564 51.897 9.51336 50.6134 11.0632 50.5728C11.0808 47.427 11.2886 44.6358 13.7243 41.9185L12.9323 38.6987C12.9131 38.6206 12.904 38.54 12.904 38.4595V32.8403C12.904 32.2881 13.3517 31.8403 13.904 31.8403ZM40.6306 22.4751C42.1471 22.4751 43.6088 22.6792 45.0046 23.0239C45.5406 23.1564 45.8673 23.6988 45.735 24.2349C45.6025 24.7708 45.0611 25.0976 44.5251 24.9653C43.2666 24.6545 41.9664 24.4751 40.6306 24.4751C31.5278 24.4754 24.1199 31.9801 24.1198 41.269C24.12 50.5579 31.5278 58.0617 40.6306 58.062C49.7335 58.062 57.1421 50.5581 57.1423 41.269C57.1422 38.4176 56.4391 35.7385 55.2077 33.3862C54.9517 32.897 55.1413 32.2927 55.6306 32.0366C56.1198 31.7807 56.724 31.9694 56.9802 32.4585C58.3568 35.0883 59.1422 38.0849 59.1423 41.269C59.1421 51.6324 50.8681 60.062 40.6306 60.062C30.3932 60.0617 22.12 51.6322 22.1198 41.269C22.1199 30.9058 30.3932 22.4754 40.6306 22.4751ZM40.6306 29.9673C41.1691 29.9673 41.6848 30.0175 42.1735 30.0874C42.7201 30.1656 43.1003 30.6726 43.0222 31.2192C42.9438 31.7658 42.4369 32.145 41.8903 32.0669C41.4621 32.0057 41.0459 31.9673 40.6306 31.9673C35.5991 31.9676 31.4929 36.1171 31.4929 41.269C31.4929 46.4209 35.5992 50.5705 40.6306 50.5708C45.6622 50.5708 49.7691 46.4211 49.7692 41.269C49.7692 40.0751 49.5403 38.9347 49.1335 37.8833C48.9345 37.3684 49.1909 36.7896 49.7057 36.5903C50.2206 36.3913 50.7993 36.647 50.9987 37.1616C51.4905 38.4327 51.7692 39.8174 51.7692 41.269C51.7691 47.4954 46.7968 52.5708 40.6306 52.5708C34.4645 52.5705 29.4929 47.4952 29.4929 41.269C29.4929 35.0428 34.4645 29.9676 40.6306 29.9673ZM37.111 38.1353C37.4731 37.7189 38.1044 37.6751 38.5212 38.0366C38.9381 38.3989 38.983 39.0309 38.6208 39.4478C38.2004 39.9316 37.9441 40.5671 37.944 41.269C37.9443 42.8012 39.1614 44.0139 40.6306 44.0142C41.6148 44.0142 42.485 43.4714 42.9557 42.646C43.2293 42.1668 43.8395 42.0001 44.319 42.2729C44.7988 42.5465 44.9666 43.1575 44.6931 43.6372C43.8873 45.05 42.3743 46.0142 40.6306 46.0142C38.0268 46.0139 35.9443 43.8755 35.944 41.269C35.9441 40.0702 36.3842 38.9717 37.111 38.1353ZM51.0241 19.8726C51.2634 19.6246 51.6183 19.514 51.9616 19.5903C52.3539 19.6778 52.6562 19.9927 52.7282 20.3882L53.447 24.3481H57.2214C57.6015 24.3484 57.9494 24.564 58.1179 24.9048C58.2863 25.2457 58.2462 25.6535 58.0153 25.9556L51.5632 34.3843C51.374 34.6312 51.0803 34.7758 50.7692 34.7759H46.6657L41.4352 41.8628C41.1073 42.3069 40.4811 42.4015 40.0368 42.0737C39.5929 41.7458 39.4984 41.1195 39.8259 40.6753L45.111 33.5142L44.5153 29.4985C44.4776 29.2433 44.5398 28.9823 44.6891 28.772L50.9284 19.9878L51.0241 19.8726ZM20.5436 19.8198C21.0097 19.5235 21.6282 19.6614 21.9245 20.1274C23.5563 22.6944 23.0588 26.0638 20.4313 27.7886L20.4304 27.7876L19.6599 28.2954C17.4177 29.7711 14.4165 29.5824 12.5759 27.6343L5.05145 32.7319C4.59432 33.0413 3.9725 32.9223 3.66278 32.4653C3.35313 32.0081 3.47327 31.3855 3.93036 31.0757L12.2253 25.4575L12.3112 25.4048C12.5174 25.2936 12.7575 25.2582 12.989 25.3062C13.2535 25.3611 13.4846 25.5206 13.6296 25.7485C14.6615 27.3715 16.8435 27.7551 18.5602 26.6255V26.6245L19.3327 26.1167H19.3337C20.9503 25.0555 21.3469 22.9454 20.237 21.1997C19.9409 20.7338 20.078 20.1162 20.5436 19.8198ZM46.5524 29.6021L47.0231 32.7759H50.2761L55.195 26.3481H52.613C52.1297 26.3481 51.7151 26.0023 51.6286 25.5269L51.1843 23.0806L46.5524 29.6021ZM11.9401 0.00244141C11.9499 0.00308123 11.9637 0.00416236 11.9802 0.00537109C12.0136 0.00783451 12.0611 0.0116271 12.1208 0.0170898C12.2409 0.0281012 12.4136 0.0462352 12.6325 0.074707C13.0711 0.131767 13.6989 0.230742 14.4753 0.400879C16.0283 0.741268 18.1823 1.3666 20.614 2.50732C25.4868 4.79335 31.4594 9.14382 35.9401 17.3735C36.2038 17.8584 36.0254 18.4659 35.5407 18.73C35.0559 18.9939 34.4486 18.815 34.1843 18.3306C29.9351 10.5258 24.3085 6.44935 19.7653 4.31787C17.4894 3.25018 15.4799 2.66894 14.0475 2.35498C14.0435 2.35409 14.0389 2.35295 14.0349 2.35205C14.4408 3.24835 14.5598 4.13429 14.4753 4.99854C14.3364 6.4169 13.6453 7.68808 13.1882 8.60498V8.60596C12.0991 10.7874 9.47131 14.5969 7.16962 17.7974C6.00838 19.4121 4.91275 20.8944 4.10809 21.9731C3.70577 22.5125 3.37572 22.9513 3.14618 23.2554C3.03143 23.4074 2.94163 23.5264 2.88055 23.6069C2.85014 23.647 2.82699 23.678 2.81122 23.6987C2.80801 23.7029 2.80402 23.7061 2.80145 23.7095C1.86698 25.0029 1.69378 27.1307 2.5788 28.5718C2.86722 29.0423 2.72005 29.6579 2.24969 29.9468C1.7792 30.2357 1.16381 30.088 0.874695 29.6177C-0.46591 27.4346 -0.188134 24.434 1.18134 22.5386L1.19598 22.5181L1.19696 22.5171C1.19789 22.5159 1.19995 22.5137 1.20184 22.5112C1.20568 22.5062 1.21177 22.4979 1.21942 22.4878C1.23479 22.4676 1.25797 22.4373 1.28778 22.3979C1.34794 22.3186 1.43689 22.2017 1.55048 22.0513C1.77802 21.7498 2.1057 21.3139 2.50555 20.7778C3.30551 19.7054 4.39302 18.2321 5.54559 16.6294C7.87155 13.3951 10.3949 9.72194 11.3981 7.7124C11.9131 6.67944 12.3899 5.77511 12.485 4.8042C12.5701 3.93477 12.3488 2.91686 11.152 1.70068C10.8622 1.40617 10.7835 0.963893 10.9538 0.587402C11.1241 0.21097 11.5081 -0.0217028 11.9206 0.00146484L11.8649 0.999512C11.9176 0.0677042 11.9217 0.00554395 11.9225 0.00146484H11.9274C11.9306 0.00166686 11.9354 0.002132 11.9401 0.00244141Z" />
</svg>
