<svg viewBox="0 0 80 80" fill="none" xmlns="http://www.w3.org/2000/svg">
<path d="M39.9972 79.9989C30.5159 79.9989 21.3151 76.6067 14.0873 70.4474C13.1075 69.6095 12.1537 68.7119 11.2527 67.7816C10.6401 67.1532 10.0421 66.4921 9.46662 65.8096L21.7509 53.4696V43.837L16.2484 49.3645L10.4667 55.177L7.23904 58.4182L5.47996 60.1886C5.06665 59.487 4.6725 58.7662 4.30311 58.0319C3.6657 56.7829 3.0981 55.5002 2.61497 54.2152C0.879539 49.6731 0 44.8923 0 39.9989C0 26.8367 6.50027 14.5102 17.3881 7.02312C18.6506 6.1548 19.958 5.35969 21.2757 4.6603C21.68 4.44519 22.0843 4.23459 22.4976 4.03638C22.823 3.87645 23.1564 3.71878 23.4954 3.56562V62.9456H40.3035V64.6901H21.7509V55.9417L11.8496 65.8873L12.4566 66.518C13.397 67.4956 14.4004 68.4303 15.4376 69.2964C15.7248 69.5442 16.0243 69.7885 16.3171 70.0149C16.396 70.0814 16.477 70.1444 16.5581 70.2075L16.6313 70.2638C23.3794 75.4917 31.4574 78.2532 39.9972 78.2532C41.3745 78.2532 42.7439 78.18 44.0773 78.0359L44.8758 77.9492V32.7032L32.0329 45.6086V54.4066H40.3035V56.1511H30.2884V1.19492C31.1939 0.965172 32.1297 0.76583 33.0802 0.601402C34.3359 0.379537 35.6434 0.217361 36.97 0.117127C37.9644 0.0394177 38.9825 0 39.9983 0C44.8307 0 49.5539 0.855928 54.0372 2.54413C55.9494 3.26041 57.8178 4.13211 59.5915 5.13557C72.181 12.2386 80 25.5979 80 40C80 43.1591 79.6295 46.2978 78.8986 49.3307C78.5912 50.6191 78.206 51.9278 77.7533 53.2196C77.4076 54.2152 77.0179 55.1995 76.5911 56.1545H55.1611V62.9468H72.7452C72.2441 63.6608 71.7215 64.3557 71.1832 65.0246C70.0818 66.393 68.8779 67.7017 67.6065 68.9124C65.1886 71.2267 62.4936 73.2246 59.5926 74.8532C58.3673 75.5514 57.0599 76.2013 55.7017 76.7858C54.9505 77.1079 54.1859 77.4074 53.4167 77.6811V12.019L32.0318 33.5051V43.1376L37.5342 37.6102L46.6191 28.4799V79.4504C45.7125 79.6024 44.7981 79.723 43.8949 79.8097C42.6077 79.9358 41.299 80 40.0062 80H39.9972V79.9989ZM55.1611 75.1505L56.4416 74.5367C57.8324 73.87 59.2018 73.1098 60.5104 72.2764C61.4981 71.6513 62.461 70.9745 63.3709 70.2672C64.9577 69.043 66.4668 67.6735 67.8497 66.1982L69.2642 64.6913H55.1611V75.1505ZM20.3973 7.15939C19.0098 7.99054 17.6404 8.93431 16.3284 9.96706C7.05886 17.2909 1.74444 28.2377 1.74444 40.0011C1.74444 44.1242 2.39987 48.1752 3.69385 52.0416C4.14657 53.4155 4.69952 54.8019 5.33468 56.1601L5.87637 57.319L21.7498 41.3684V6.34963L20.3961 7.15939H20.3973ZM55.1611 54.4089H75.4413L75.6631 53.839C76.1823 52.5056 76.6282 51.1361 76.9886 49.7677C77.8287 46.6053 78.2544 43.3178 78.2544 40C78.2544 26.875 71.6213 14.8098 60.5104 7.72475C59.2176 6.89923 57.8482 6.13791 56.4416 5.46443L56.008 5.25945C54.6431 4.62764 53.25 4.08143 51.8558 3.63206C48.046 2.38196 44.0537 1.74677 39.9972 1.74677C38.9521 1.74677 37.8856 1.79069 36.8281 1.87741C35.4553 1.99003 34.0848 2.17699 32.757 2.43376L32.0318 2.57342V31.0319L52.4819 10.484C53.3987 10.8725 54.2962 11.3039 55.1611 11.7724V54.41V54.4089Z" />
</svg>
