<svg viewBox="0 0 160 106" fill="none" xmlns="http://www.w3.org/2000/svg">
<g clip-path="url(#clip0_211_1402)">
<path d="M79.9983 59.5151C72.9825 59.5151 66.1742 56.9914 60.8258 52.4092C60.1008 51.7858 59.395 51.118 58.7283 50.4259C58.275 49.9584 57.8325 49.4666 57.4067 48.9588L66.4967 39.7783V32.6121L62.425 36.7243L58.1467 41.0486L55.7583 43.4599L54.4567 44.777C54.1508 44.2551 53.8592 43.7188 53.5858 43.1725C53.1142 42.2433 52.6942 41.289 52.3367 40.333C51.0525 36.9539 50.4017 33.3972 50.4017 29.7566C50.4017 19.9645 55.2117 10.7941 63.2683 5.22395C64.2025 4.57796 65.17 3.98642 66.145 3.46611C66.4442 3.30608 66.7433 3.1494 67.0492 3.00193C67.29 2.88296 67.5367 2.76565 67.7875 2.6517V46.8281H80.225V48.126H66.4967V41.6175L59.17 49.0166L59.6192 49.4859C60.315 50.2131 61.0575 50.9085 61.825 51.5529C62.0375 51.7372 62.2592 51.919 62.4758 52.0874C62.5342 52.1369 62.5942 52.1838 62.6542 52.2307L62.7083 52.2726C67.7017 56.162 73.6792 58.2164 79.9983 58.2164C81.0175 58.2164 82.0308 58.1619 83.0175 58.0547L83.6083 57.9902V24.329L74.105 33.93V40.4754H80.225V41.7733H72.8142V0.887998C73.4842 0.717074 74.1767 0.568772 74.88 0.446443C75.8092 0.281384 76.7767 0.160731 77.7583 0.0861614C78.4942 0.0283487 79.2475 -0.000976562 79.9992 -0.000976562C83.575 -0.000976562 87.07 0.635801 90.3875 1.89176C91.8025 2.42464 93.185 3.07315 94.4975 3.81969C103.813 9.1041 109.599 19.0429 109.599 29.7575C109.599 32.1077 109.325 34.4428 108.784 36.6992C108.557 37.6577 108.272 38.6313 107.937 39.5923C107.681 40.333 107.393 41.0653 107.077 41.7758H91.2192V46.829H104.231C103.86 47.3602 103.473 47.8771 103.075 48.3748C102.26 49.3928 101.369 50.3664 100.428 51.2672C98.6392 52.989 96.645 54.4753 94.4983 55.6869C93.5917 56.2064 92.6242 56.6898 91.6192 57.1247C91.0633 57.3643 90.4975 57.5872 89.9283 57.7908V8.94072L74.1042 24.9255V32.0918L78.1758 27.9795L84.8983 21.187V59.1071C84.2275 59.2202 83.5508 59.3098 82.8825 59.3743C81.93 59.4682 80.9617 59.5159 80.005 59.5159H79.9983V59.5151ZM91.2192 55.9081L92.1667 55.4515C93.1958 54.9554 94.2092 54.3899 95.1775 53.7699C95.9083 53.3048 96.6208 52.8013 97.2942 52.2751C98.4683 51.3643 99.585 50.3455 100.608 49.2479L101.655 48.1268H91.2192V55.9081ZM65.495 5.32533C64.4683 5.94368 63.455 6.64581 62.4842 7.41413C55.625 12.8628 51.6925 21.0068 51.6925 29.7583C51.6925 32.8257 52.1775 35.8395 53.135 38.7159C53.47 39.7381 53.8792 40.7695 54.3492 41.78L54.75 42.6422L66.4958 30.7755V4.72291L65.4942 5.32533H65.495ZM91.2192 40.4771H106.226L106.39 40.0532C106.774 39.0611 107.104 38.0423 107.371 37.0243C107.993 34.6716 108.308 32.2258 108.308 29.7575C108.308 19.993 103.399 11.0169 95.1775 5.74594C94.2208 5.13179 93.2075 4.56539 92.1667 4.06434L91.8458 3.91185C90.8358 3.44181 89.805 3.03545 88.7733 2.70114C85.9542 1.77111 83 1.29855 79.9983 1.29855C79.225 1.29855 78.4358 1.33123 77.6533 1.39574C76.6375 1.47953 75.6233 1.61862 74.6408 1.80965L74.1042 1.91355V23.0856L89.2367 7.79871C89.915 8.08777 90.5792 8.40868 91.2192 8.75723V40.478V40.4771Z" fill="#DABF94"/>
<path d="M4.85581 84.1117C4.77748 84.1117 4.75165 84.1385 4.72581 84.1904C3.92081 86.4359 2.67415 89.8041 2.41415 91.0316C2.12831 90.9528 1.92081 90.9796 1.37581 90.9796C0.830812 90.9796 0.206646 91.0316 -0.000854492 91.0576C0.648312 89.6734 1.63498 87.376 2.67415 84.844L7.81581 72.0229C8.12748 71.2663 8.23165 70.9521 8.41331 70.9521C8.54331 70.9521 8.64665 71.1616 9.03665 72.0229C9.32248 72.6505 11.8933 78.5507 14.1008 83.8251C15.2691 86.5934 16.7241 90.0136 17.3991 91.0324C16.9058 91.0056 16.49 90.9805 16.205 90.9805C15.5558 90.9805 14.8283 90.9805 14.5166 91.0584C14.1008 89.8837 12.6983 86.2801 11.79 84.1913C11.7641 84.1393 11.7116 84.1125 11.6858 84.1125H4.85581V84.1117ZM11.1408 82.5968C11.1925 82.5968 11.2191 82.5708 11.1925 82.4921L8.12831 74.8943L5.29748 82.4921C5.27165 82.5708 5.29748 82.5968 5.34915 82.5968H11.14H11.1408Z" fill="#031B41"/>
<path d="M21.1133 78.8895C21.1133 75.1811 21.0875 72.179 20.8016 71.3428C21.295 71.4216 21.6066 71.3948 21.9958 71.3948C22.515 71.3948 24.515 71.29 25.4241 71.29C27.19 71.29 28.8516 71.5255 29.9691 72.2301C31.3191 73.0923 32.28 74.6323 32.28 76.5125C32.28 78.7579 31.215 80.6121 29.1116 82.0742C30.7733 84.2937 32.6691 86.9045 34.4616 88.8634C35.5783 90.0909 36.3575 90.7696 36.8508 90.9782C36.5133 91.1089 35.7858 91.1349 35.1625 91.1349C33.9941 91.1349 33.3708 90.8215 32.3058 89.672C30.8775 88.2367 28.4625 84.633 27.2675 83.0143C27.1633 82.8836 27.06 82.8308 26.93 82.8308C26.3841 82.8308 24.515 82.8048 23.3716 82.8048C23.32 82.8048 23.2941 82.8568 23.2941 82.9615V83.7709C23.2941 87.0612 23.3975 89.9074 23.5275 91.0301C23.2941 90.9514 22.8266 90.9782 22.385 90.9782C21.8916 90.9782 21.1383 90.9782 20.8525 91.0561C20.9825 90.1428 21.1125 86.9045 21.1125 83.4843V78.8895H21.1133ZM23.295 81.0311C23.295 81.1618 23.3208 81.2405 23.3725 81.2657C23.8916 81.3704 25.1908 81.4492 26.5666 81.4492C27.32 81.4492 27.735 81.3704 28.0725 81.1358C29.1116 80.3784 30.0458 79.021 30.0458 77.1409C30.0458 74.3474 28.3058 72.6759 25.2933 72.6759C24.4883 72.6759 23.7866 72.7027 23.3975 72.7806C23.32 72.8066 23.2941 72.8585 23.2941 72.9633V81.0319L23.295 81.0311Z" fill="#031B41"/>
<path d="M39.1366 78.8895C39.1366 75.1559 39.085 72.2829 38.8775 71.3428C39.215 71.3696 39.6566 71.3948 40.0458 71.3948C41.0066 71.3948 42.2533 71.29 43.5775 71.29C48.0183 71.29 49.0833 73.9276 49.0833 75.8598C49.0833 78.0533 47.7066 79.4374 46.59 80.0642C48.7716 80.6909 50.8491 82.3356 50.8491 85.3126C50.8491 88.2895 48.6933 91.1868 44.0966 91.1868C42.305 91.1868 41.0583 91.031 40.4608 91.0042C40.0716 90.9782 39.3441 91.0042 38.9541 91.031C39.0325 89.9862 39.1358 86.8794 39.1358 83.4843V78.8895H39.1366ZM41.3183 79.5422C41.3183 79.6209 41.3441 79.6469 41.4216 79.6729C41.915 79.6729 44.045 79.7248 44.4341 79.7248C44.9275 79.7248 45.1091 79.698 45.4208 79.4894C46.4858 78.7847 47.005 77.5313 47.005 76.3826C47.005 74.1631 45.6541 72.6742 43.0316 72.6742C42.175 72.6742 41.5775 72.701 41.395 72.7789C41.3433 72.8049 41.3175 72.8568 41.3175 72.9356V79.5413L41.3183 79.5422ZM46.7975 82.1278C45.8883 81.3972 44.8233 81.2397 43.7066 81.1609C42.8758 81.083 41.655 81.135 41.4208 81.135C41.3433 81.1609 41.3175 81.1869 41.3175 81.2397V83.4852C41.3175 88.0021 41.3691 89.1516 41.4475 89.2296C41.7333 89.517 42.72 89.7524 44.2008 89.7524C46.4083 89.7524 48.5116 88.4462 48.5116 85.6268C48.5116 84.4521 48.2525 83.2506 46.7983 82.1278H46.7975Z" fill="#031B41"/>
<path d="M55.4458 78.8632C55.4458 75.1816 55.42 71.9701 55.2125 71.3693C55.4458 71.3953 55.9916 71.3953 56.3033 71.3953C57.03 71.3953 57.68 71.3434 57.8616 71.3174C57.7833 72.2834 57.68 75.1556 57.68 78.8892V83.484C57.68 86.8263 57.7833 90.2473 57.9133 91.0307C57.68 91.0039 57.1866 90.9787 56.7708 90.9787C56.2516 90.9787 55.4983 91.0307 55.2641 91.0567C55.3425 90.1434 55.4458 86.905 55.4458 83.4849V78.8632Z" fill="#031B41"/>
<path d="M61.6783 71.161C62.3275 71.2917 63.2366 71.3956 65.4958 71.3956H73.9358C75.4683 71.3956 77.3116 71.3177 77.805 71.1861C77.675 71.7869 77.5716 72.649 77.545 73.4576C77.13 73.1702 76.4283 73.0663 74.6883 72.9616C73.7533 72.8836 72.5325 72.8568 70.5591 72.8568V83.4843C70.5591 86.8006 70.6375 90.116 70.7675 91.031C70.4816 90.9522 70.0925 90.979 69.7025 90.979C69.0783 90.979 68.56 91.005 68.1183 91.0569C68.2483 90.1688 68.3266 86.8793 68.3266 83.4852V72.8577C67.1316 72.8577 66.4566 72.8317 64.7425 72.9096C63.0025 72.9884 61.9641 73.0931 61.2625 73.3277C61.4183 72.8836 61.6 71.709 61.6783 71.1602V71.161Z" fill="#031B41"/>
<path d="M81.2333 78.8895C81.2333 75.1811 81.2075 72.179 80.9225 71.3428C81.4158 71.4216 81.7275 71.3948 82.1167 71.3948C82.6367 71.3948 84.6358 71.29 85.545 71.29C87.3108 71.29 88.9733 71.5255 90.09 72.2301C91.4408 73.0923 92.4016 74.6323 92.4016 76.5125C92.4016 78.7579 91.3367 80.6121 89.2333 82.0742C90.895 84.2937 92.7908 86.9045 94.5825 88.8634C95.7 90.0909 96.4792 90.7696 96.9725 90.9782C96.6342 91.1089 95.9075 91.1349 95.2842 91.1349C94.1158 91.1349 93.4925 90.8215 92.4275 89.672C91 88.2367 88.5842 84.633 87.39 83.0143C87.2858 82.8836 87.1817 82.8308 87.0517 82.8308C86.5067 82.8308 84.6367 82.8048 83.4942 82.8048C83.4425 82.8048 83.4167 82.8568 83.4167 82.9615V83.7709C83.4167 87.0612 83.5208 89.9074 83.65 91.0301C83.4167 90.9514 82.9483 90.9782 82.5075 90.9782C82.015 90.9782 81.2617 90.9782 80.9758 91.0561C81.1058 90.1428 81.235 86.9045 81.235 83.4843V78.8895H81.2333ZM83.415 81.0311C83.415 81.1618 83.4408 81.2405 83.4925 81.2657C84.0125 81.3704 85.3108 81.4492 86.6867 81.4492C87.4392 81.4492 87.855 81.3704 88.1925 81.1358C89.2317 80.3784 90.1667 79.021 90.1667 77.1409C90.1667 74.3474 88.4266 72.6759 85.4141 72.6759C84.6091 72.6759 83.9083 72.7027 83.5183 72.7806C83.44 72.8066 83.4141 72.8585 83.4141 72.9633V81.0319L83.415 81.0311Z" fill="#031B41"/>
<path d="M101.854 84.1117C101.776 84.1117 101.75 84.1385 101.724 84.1904C100.919 86.4359 99.6725 89.8041 99.4133 91.0316C99.1275 90.9528 98.92 90.9796 98.3741 90.9796C97.8283 90.9796 97.2058 91.0316 96.9975 91.0576C97.6466 89.6734 98.6341 87.376 99.6725 84.844L104.815 72.0229C105.127 71.2663 105.231 70.9521 105.412 70.9521C105.542 70.9521 105.646 71.1616 106.036 72.0229C106.322 72.6505 108.892 78.5507 111.1 83.8251C112.269 86.5934 113.723 90.0136 114.398 91.0324C113.905 91.0056 113.49 90.9805 113.203 90.9805C112.554 90.9805 111.827 90.9805 111.516 91.0584C111.1 89.8837 109.697 86.2801 108.789 84.1913C108.762 84.1393 108.711 84.1125 108.685 84.1125H101.855L101.854 84.1117ZM108.138 82.5968C108.19 82.5968 108.216 82.5708 108.19 82.4921L105.126 74.8943L102.295 82.4921C102.268 82.5708 102.295 82.5968 102.347 82.5968H108.137H108.138Z" fill="#031B41"/>
<path d="M118.162 78.889C118.162 75.1287 118.032 72.1258 117.903 71.3424C118.111 71.4211 118.734 71.3943 119.046 71.3943C119.643 71.3943 120.37 71.3943 120.604 71.3164C120.501 72.2825 120.397 75.1287 120.397 78.8103V83.3012C120.397 88.5756 120.422 89.2543 120.578 89.333C120.708 89.4118 120.916 89.4897 121.202 89.5157C121.722 89.5944 122.63 89.5944 123.747 89.5944C126.656 89.5944 127.694 89.3598 128.317 89.0724C128.109 89.5425 127.797 90.6912 127.72 91.0833C127.59 91.1093 127.331 91.1353 126.162 91.1353C122.344 91.1353 120.526 90.9786 119.28 90.9786C118.682 90.9786 118.293 90.9518 117.981 91.0305C118.058 90.1164 118.162 87.1923 118.162 83.4839V78.889Z" fill="#031B41"/>
<path d="M131.875 78.8891C131.875 74.6327 131.797 72.0739 131.616 71.3424C131.927 71.4212 132.628 71.3944 133.147 71.3944H138.912C139.458 71.3944 140.497 71.3684 140.99 71.2637C140.912 71.655 140.782 72.5431 140.782 73.4044C140.471 73.2218 139.951 73.0919 138.704 72.9872C137.899 72.9084 136.445 72.8565 134.185 72.8565C134.107 72.8565 134.081 72.8833 134.081 72.9612V79.7244C134.081 79.8024 134.107 79.8551 134.185 79.8551C134.549 79.8551 137.587 79.8292 138.314 79.8292C139.664 79.7504 140.262 79.6985 140.547 79.6197C140.417 80.2205 140.314 81.2644 140.339 81.7873C139.95 81.6038 139.587 81.4999 138.573 81.4211C137.665 81.3432 134.678 81.3164 134.185 81.3164C134.107 81.3164 134.081 81.3432 134.081 81.4211V83.3013C134.081 88.4718 134.132 89.1756 134.263 89.3071C134.341 89.385 134.627 89.4378 134.86 89.4638C135.457 89.5417 136.237 89.5945 137.353 89.5945C139.821 89.5945 140.937 89.4378 141.664 89.0457C141.482 89.6464 141.275 90.5597 141.171 91.0825C141.067 91.1085 140.86 91.1345 139.847 91.1345C136.212 91.1345 134.315 90.9778 133.302 90.9778C132.55 90.9778 131.952 91.0038 131.667 91.0297C131.744 90.1156 131.874 87.1915 131.874 83.4831V78.8882L131.875 78.8891Z" fill="#031B41"/>
<path d="M145.379 90.9786C144.86 90.9786 144.211 90.9786 143.821 91.0565C144.314 90.5345 145.482 88.9158 146.937 86.6963L150.702 80.7952L146.911 74.7634C145.872 73.0927 144.963 71.9431 144.366 71.3424C144.859 71.3692 145.405 71.3943 146.002 71.3943C146.6 71.3943 147.119 71.3684 147.482 71.3164C148.313 73.1178 150.392 76.4869 152.079 79.0968C152.91 78.0009 154.598 75.1279 154.884 74.6846C155.586 73.484 156.546 71.8912 156.676 71.3424C156.858 71.3692 157.247 71.3943 157.637 71.3943C158.364 71.3943 159.065 71.3424 159.352 71.3164C158.65 72.0211 157.69 73.3792 156.78 74.7634L152.962 80.4031C153.43 81.3691 155.507 84.6066 156.598 86.3301C158.546 89.4118 159.507 90.5345 160 91.0305C159.611 90.9518 158.987 90.9786 158.572 90.9786C158.131 90.9786 156.936 90.9786 156.651 91.0565L154.859 87.7411L151.612 82.1793L147.872 88.3678C147.146 89.5953 146.574 90.744 146.47 91.0314C146.184 90.9526 145.872 90.9794 145.379 90.9794V90.9786Z" fill="#031B41"/>
<path d="M79.9983 59.5151C72.9825 59.5151 66.1742 56.9914 60.8258 52.4092C60.1008 51.7858 59.395 51.118 58.7283 50.4259C58.275 49.9584 57.8325 49.4666 57.4067 48.9588L66.4967 39.7783V32.6121L62.425 36.7243L58.1467 41.0486L55.7583 43.4599L54.4567 44.777C54.1508 44.2551 53.8592 43.7188 53.5858 43.1725C53.1142 42.2433 52.6942 41.289 52.3367 40.333C51.0525 36.9539 50.4017 33.3972 50.4017 29.7566C50.4017 19.9645 55.2117 10.7941 63.2683 5.22395C64.2025 4.57796 65.17 3.98642 66.145 3.46611C66.4442 3.30608 66.7433 3.1494 67.0492 3.00193C67.29 2.88296 67.5367 2.76565 67.7875 2.6517V46.8281H80.225V48.126H66.4967V41.6175L59.17 49.0166L59.6192 49.4859C60.315 50.2131 61.0575 50.9085 61.825 51.5529C62.0375 51.7372 62.2592 51.919 62.4758 52.0874C62.5342 52.1369 62.5942 52.1838 62.6542 52.2307L62.7083 52.2726C67.7017 56.162 73.6792 58.2164 79.9983 58.2164C81.0175 58.2164 82.0308 58.1619 83.0175 58.0547L83.6083 57.9902V24.329L74.105 33.93V40.4754H80.225V41.7733H72.8142V0.887998C73.4842 0.717074 74.1767 0.568772 74.88 0.446443C75.8092 0.281384 76.7767 0.160731 77.7583 0.0861614C78.4942 0.0283487 79.2475 -0.000976562 79.9992 -0.000976562C83.575 -0.000976562 87.07 0.635801 90.3875 1.89176C91.8025 2.42464 93.185 3.07315 94.4975 3.81969C103.813 9.1041 109.599 19.0429 109.599 29.7575C109.599 32.1077 109.325 34.4428 108.784 36.6992C108.557 37.6577 108.272 38.6313 107.937 39.5923C107.681 40.333 107.393 41.0653 107.077 41.7758H91.2192V46.829H104.231C103.86 47.3602 103.473 47.8771 103.075 48.3748C102.26 49.3928 101.369 50.3664 100.428 51.2672C98.6392 52.989 96.645 54.4753 94.4983 55.6869C93.5917 56.2064 92.6242 56.6898 91.6192 57.1247C91.0633 57.3643 90.4975 57.5872 89.9283 57.7908V8.94072L74.1042 24.9255V32.0918L78.1758 27.9795L84.8983 21.187V59.1071C84.2275 59.2202 83.5508 59.3098 82.8825 59.3743C81.93 59.4682 80.9617 59.5159 80.005 59.5159H79.9983V59.5151ZM91.2192 55.9081L92.1667 55.4515C93.1958 54.9554 94.2092 54.3899 95.1775 53.7699C95.9083 53.3048 96.6208 52.8013 97.2942 52.2751C98.4683 51.3643 99.585 50.3455 100.608 49.2479L101.655 48.1268H91.2192V55.9081ZM65.495 5.32533C64.4683 5.94368 63.455 6.64581 62.4842 7.41413C55.625 12.8628 51.6925 21.0068 51.6925 29.7583C51.6925 32.8257 52.1775 35.8395 53.135 38.7159C53.47 39.7381 53.8792 40.7695 54.3492 41.78L54.75 42.6422L66.4958 30.7755V4.72291L65.4942 5.32533H65.495ZM91.2192 40.4771H106.226L106.39 40.0532C106.774 39.0611 107.104 38.0423 107.371 37.0243C107.993 34.6716 108.308 32.2258 108.308 29.7575C108.308 19.993 103.399 11.0169 95.1775 5.74594C94.2208 5.13179 93.2075 4.56539 92.1667 4.06434L91.8458 3.91185C90.8358 3.44181 89.805 3.03545 88.7733 2.70114C85.9542 1.77111 83 1.29855 79.9983 1.29855C79.225 1.29855 78.4358 1.33123 77.6533 1.39574C76.6375 1.47953 75.6233 1.61862 74.6408 1.80965L74.1042 1.91355V23.0856L89.2367 7.79871C89.915 8.08777 90.5792 8.40868 91.2192 8.75723V40.478V40.4771Z" fill="#DABF94"/>
</g>
<defs>
<clipPath id="clip0_211_1402">
<rect width="160" height="106" fill="white"/>
</clipPath>
</defs>
</svg>
