<svg viewBox="0 0 237 60" fill="none" xmlns="http://www.w3.org/2000/svg">
<path d="M27.5368 57.4992C21.0092 57.4992 14.6747 55.1671 9.69865 50.9326C9.02411 50.3565 8.3674 49.7394 7.74713 49.0999C7.32535 48.6678 6.91365 48.2133 6.51746 47.7441L14.9748 39.2604V32.638L11.1865 36.4381L7.20595 40.4342L4.98384 42.6625L3.77277 43.8797C3.48822 43.3973 3.21686 42.9018 2.96255 42.397C2.52371 41.5383 2.13294 40.6564 1.80032 39.7729C0.605533 36.6503 0 33.3635 0 29.9992C0 20.9502 4.47522 12.4758 11.9712 7.32839C12.8403 6.73142 13.7405 6.18478 14.6476 5.70396C14.926 5.55607 15.2043 5.41128 15.4888 5.27501C15.7129 5.16506 15.9424 5.05666 16.1758 4.95136V45.7751H27.7476V46.9745H14.9748V40.9599L8.15806 47.7975L8.57597 48.2311C9.22337 48.9032 9.9142 49.5458 10.6283 50.1413C10.826 50.3116 11.0322 50.4796 11.2338 50.6353C11.2881 50.6809 11.3439 50.7243 11.3997 50.7677L11.4501 50.8064C16.0959 54.4006 21.6574 56.2991 27.5368 56.2991C28.485 56.2991 29.4278 56.2488 30.3458 56.1497L30.8955 56.09V24.9835L22.0536 33.8559V39.9046H27.7476V41.1039H20.8526V3.32151C21.476 3.16356 22.1203 3.02651 22.7747 2.91346C23.6392 2.76093 24.5393 2.64944 25.4527 2.58052C26.1373 2.5271 26.8382 2.5 27.5375 2.5C30.8645 2.5 34.1162 3.08845 37.2028 4.24909C38.5194 4.74153 39.8056 5.34082 41.0268 6.0307C49.6942 10.9141 55.0774 20.0985 55.0774 30C55.0774 32.1718 54.8223 34.3298 54.3191 36.4149C54.1075 37.3007 53.8423 38.2004 53.5306 39.0885C53.2926 39.7729 53.0243 40.4496 52.7305 41.1062H37.9766V45.7759H50.0827C49.7377 46.2668 49.3779 46.7445 49.0073 47.2044C48.249 48.1452 47.4202 49.0449 46.5448 49.8772C44.8802 51.4684 43.0248 52.8419 41.0276 53.9616C40.184 54.4416 39.2838 54.8884 38.3488 55.2902C37.8316 55.5117 37.3052 55.7176 36.7756 55.9058V10.7631L22.0528 25.5347V32.1571L25.8411 28.357L32.0957 22.0799V57.1222C31.4716 57.2267 30.842 57.3095 30.2202 57.3691C29.334 57.4559 28.433 57.5 27.543 57.5H27.5368V57.4992ZM37.9766 54.166L38.8582 53.744C39.8157 53.2856 40.7585 52.763 41.6595 52.19C42.3394 51.7603 43.0023 51.2949 43.6288 50.8087C44.7213 49.9671 45.7602 49.0255 46.7123 48.0112L47.6861 46.9753H37.9766V54.166ZM14.0428 7.42208C13.0876 7.9935 12.1448 8.64234 11.2416 9.35235C4.85979 14.3875 1.20099 21.9135 1.20099 30.0008C1.20099 32.8354 1.65224 35.6205 2.54309 38.2786C2.85478 39.2232 3.23547 40.1763 3.67276 41.1101L4.04569 41.9068L14.974 30.9407V6.86537L14.0421 7.42208H14.0428ZM37.9766 39.9061H51.9388L52.0916 39.5143C52.449 38.5976 52.756 37.6561 53.0041 36.7153C53.5825 34.5411 53.8756 32.281 53.8756 30C53.8756 20.9766 49.3089 12.6817 41.6595 7.81077C40.7694 7.24322 39.8266 6.71981 38.8582 6.25679L38.5597 6.11587C37.62 5.6815 36.6609 5.30598 35.701 4.99704C33.0781 4.1376 30.3295 3.7009 27.5368 3.7009C26.8172 3.7009 26.083 3.7311 25.355 3.79072C24.4098 3.86815 23.4663 3.99668 22.5521 4.17321L22.0528 4.26922V23.8344L36.1321 9.70775C36.7632 9.97487 37.3812 10.2714 37.9766 10.5935V39.9069V39.9061Z" class="logo-sign"/>
<path d="M107.376 45.3916C107.376 46.477 108.235 47.334 109.323 47.334C110.41 47.3338 111.264 46.464 111.264 45.3916V41.4688H112V45.3916C112 46.8586 110.792 48.0614 109.323 48.0615C107.853 48.0615 106.649 46.8674 106.649 45.3916V41.4688H107.376V45.3916ZM174.847 41.3115C176.716 41.3116 178.231 42.825 178.231 44.6963C178.231 46.5676 176.716 48.0614 174.847 48.0615C172.978 48.0615 171.463 46.5668 171.463 44.6963C171.463 42.8258 172.978 41.3115 174.847 41.3115ZM192.645 45.3916C192.645 46.477 193.504 47.334 194.591 47.334C195.678 47.3338 196.532 46.4639 196.532 45.3916V41.4688H197.269V45.3916H197.27C197.27 46.8586 196.061 48.0613 194.591 48.0615C193.121 48.0615 191.917 46.8674 191.917 45.3916V41.4688H192.645V45.3916ZM221.999 41.3115C223.868 41.3118 225.383 42.8251 225.383 44.6963C225.383 46.5675 223.869 48.0613 221.999 48.0615C220.131 48.0615 218.615 46.5668 218.615 44.6963C218.615 42.8258 220.131 41.3115 221.999 41.3115ZM89.5598 41.3564C90.1349 41.3564 90.7962 41.5001 91.3176 41.7471L91.0569 42.4111C90.5849 42.2135 90.0774 42.0743 89.5657 42.0742C88.8868 42.0742 87.9036 42.2501 87.9036 43.1162C87.904 44.754 91.5246 43.9019 91.5247 46.2705C91.5247 47.527 90.2174 48.0293 89.1477 48.0293C88.4871 48.0293 87.8402 47.8235 87.2375 47.5723L87.5159 46.917C88.0277 47.1328 88.5856 47.3154 89.1467 47.3154C89.771 47.3154 90.8046 47.0522 90.8049 46.2666C90.8049 44.6198 87.1829 45.4499 87.1829 43.1113C87.1831 41.8327 88.473 41.3565 89.5598 41.3564ZM164.377 41.3564C164.952 41.3564 165.613 41.5002 166.134 41.7471L165.874 42.4111C165.403 42.2134 164.895 42.0742 164.382 42.0742C163.704 42.0743 162.72 42.2502 162.72 43.1162C162.72 44.754 166.342 43.9019 166.342 46.2705C166.342 47.5269 165.035 48.0292 163.965 48.0293C163.304 48.0293 162.657 47.8235 162.055 47.5723L162.334 46.917C162.846 47.1328 163.404 47.3154 163.965 47.3154C164.589 47.3153 165.622 47.052 165.622 46.2666C165.622 44.6198 162 45.4499 162 43.1113C162 41.8326 163.289 41.3565 164.377 41.3564ZM72.2082 41.4688C74.0639 41.4688 75.6095 42.7748 75.6096 44.6865C75.6096 46.5984 74.0691 47.9003 72.2082 47.9004C71.4983 47.9004 70.7883 47.9043 70.0784 47.9043V41.4697H72.2082V41.4688ZM99.3196 41.4697C100.51 41.4697 101.454 42.4264 101.454 43.6104C101.454 44.7941 100.506 45.7412 99.3196 45.7412H97.7073V47.9043H96.9836V41.4697H99.3196ZM122.038 42.1924H119.921V47.9043H119.198V42.1924H117.08V41.4688H122.038V42.1924ZM131.491 42.1865H127.924V44.1924H130.688V44.9102H127.924V47.1777H131.491V47.9043H127.2V41.4697H131.491V42.1865ZM156.807 42.1865H153.239V44.1924H156.003V44.9102H153.239V47.1777H156.807V47.9043H152.517V41.4697H156.807V42.1865ZM184.343 47.1816H187.264V47.9043H183.624V41.4697H184.343V47.1816ZM207.308 42.1924H205.191V47.9043H204.467V42.1924H202.351V41.4688H207.308V42.1924ZM81.6946 47.9033H80.9709V41.4688H81.6946V47.9033ZM144.823 41.4688C145.954 41.4688 146.921 42.3354 146.921 43.4883C146.921 44.3189 146.382 45.1264 145.551 45.3242L147.335 47.9033H146.427L144.764 45.4902H143.188V47.9033H142.464V41.4688H144.823ZM213.194 47.9033H212.47V41.4688H213.194V47.9033ZM235.39 46.5938V41.4688H236.11V47.9033H235.457L231.494 42.7793V47.9033H230.776V41.4688H231.422L235.39 46.5938ZM174.847 42.0352C173.363 42.0352 172.183 43.2196 172.183 44.6963C172.183 46.173 173.368 47.3486 174.847 47.3486C176.326 47.3485 177.512 46.1764 177.512 44.6963C177.512 43.2153 176.331 42.0352 174.847 42.0352ZM221.999 42.0352C220.515 42.0352 219.334 43.2196 219.334 44.6963C219.334 46.173 220.521 47.3486 221.999 47.3486C223.478 47.3484 224.664 46.1763 224.664 44.6963C224.664 43.2154 223.483 42.0354 221.999 42.0352ZM70.7971 47.1855H72.2082V47.1865C73.6688 47.1865 74.8909 46.2038 74.8909 44.6865C74.8907 43.1694 73.6592 42.1866 72.2082 42.1865H70.7971V47.1855ZM97.7073 45.0234H99.3196C100.119 45.0234 100.735 44.4089 100.736 43.6104C100.736 42.8115 100.101 42.1924 99.3196 42.1924H97.7073V45.0234ZM143.188 44.7715H144.823C145.578 44.7715 146.198 44.2689 146.198 43.4883C146.198 42.7076 145.583 42.1924 144.823 42.1924H143.188V44.7715ZM115.298 12.2861C119.906 12.2861 121.012 15.0047 121.012 16.9961C121.012 19.2568 119.584 20.6841 118.425 21.3301C120.689 21.9761 122.844 23.6712 122.844 26.7393C122.844 29.8075 120.607 32.7939 115.837 32.7939C113.978 32.7939 112.685 32.6331 112.065 32.6055C111.661 32.5787 110.906 32.6052 110.501 32.6328C110.582 31.5557 110.69 28.3534 110.69 24.8545V20.1191H110.691C110.691 16.2711 110.636 13.3097 110.421 12.3408C110.771 12.3685 111.23 12.3945 111.634 12.3945C112.631 12.3945 113.924 12.2862 115.298 12.2861ZM195.229 12.3145C195.122 13.3105 195.014 16.244 195.014 20.0381V24.667C195.014 30.1028 195.041 30.8026 195.202 30.8838C195.337 30.9649 195.553 31.0445 195.849 31.0713C196.388 31.1525 197.331 31.1533 198.489 31.1533C201.508 31.1533 202.586 30.9114 203.233 30.6152C203.016 31.0999 202.693 32.2835 202.613 32.6875C202.478 32.7142 202.207 32.7412 200.995 32.7412C197.034 32.7412 195.147 32.5791 193.855 32.5791C193.235 32.5791 192.831 32.5518 192.507 32.6328C192.587 31.6904 192.696 28.6763 192.696 24.8545V20.1191C192.696 16.2434 192.56 13.1483 192.426 12.3408C192.641 12.422 193.288 12.3945 193.612 12.3945C194.231 12.3945 194.986 12.3947 195.229 12.3145ZM96.4612 12.2861C98.2934 12.2862 100.017 12.5296 101.177 13.2559C102.578 14.1445 103.575 15.7312 103.575 17.6689C103.575 19.9833 102.47 21.8944 100.287 23.4014C102.012 25.689 103.979 28.3804 105.839 30.3994C106.998 31.6644 107.807 32.3641 108.319 32.5791C107.968 32.7138 107.213 32.7402 106.567 32.7402C105.354 32.7402 104.707 32.4172 103.602 31.2324C102.12 29.7531 99.6133 26.0385 98.3733 24.3701C98.2654 24.2357 98.1583 24.1817 98.0237 24.1816C97.4573 24.1816 95.5178 24.1543 94.3313 24.1543C94.2777 24.1543 94.2502 24.2085 94.2502 24.3164V25.1504C94.2502 28.5412 94.3575 31.4744 94.4924 32.6318C94.2502 32.5508 93.765 32.5791 93.3069 32.5791C92.795 32.5791 92.0137 32.5789 91.717 32.6592C91.8519 31.7179 91.9866 28.3796 91.9866 24.8545V20.1191C91.9866 16.297 91.9609 13.2027 91.6643 12.3408C92.1761 12.422 92.4998 12.3945 92.9036 12.3945C93.4428 12.3945 95.5179 12.2861 96.4612 12.2861ZM158.848 12.2861C160.68 12.2861 162.406 12.5296 163.565 13.2559C164.966 14.1445 165.963 15.7314 165.963 17.6689C165.963 19.9833 164.858 21.8944 162.675 23.4014C164.399 25.689 166.367 28.3804 168.226 30.3994C169.385 31.6645 170.194 32.3641 170.706 32.5791C170.355 32.7138 169.601 32.7402 168.954 32.7402C167.742 32.7402 167.095 32.417 165.99 31.2324C164.509 29.7531 162.002 26.0385 160.763 24.3701C160.655 24.2354 160.546 24.1816 160.411 24.1816C159.846 24.1816 157.905 24.1543 156.72 24.1543C156.666 24.1543 156.64 24.2085 156.64 24.3164V25.1504C156.64 28.5413 156.748 31.4745 156.882 32.6318C156.64 32.5507 156.154 32.5791 155.697 32.5791C155.185 32.5791 154.403 32.5789 154.107 32.6592C154.242 31.7179 154.375 28.3796 154.375 24.8545V20.1191H154.374C154.374 16.297 154.347 13.2027 154.051 12.3408C154.563 12.422 154.887 12.3945 155.29 12.3945C155.83 12.3945 157.904 12.2861 158.848 12.2861ZM216.383 12.2598C216.303 12.663 216.167 13.5782 216.167 14.4658C215.845 14.2776 215.305 14.1441 214.011 14.0361C213.176 13.955 211.667 13.9014 209.322 13.9014C209.241 13.9014 209.213 13.9295 209.213 14.0098V20.9805C209.213 21.0605 209.241 21.1152 209.322 21.1152C209.699 21.1152 212.853 21.0879 213.607 21.0879C215.007 21.0067 215.627 20.9532 215.924 20.8721C215.789 21.4912 215.682 22.5676 215.708 23.1064C215.304 22.9173 214.927 22.8097 213.875 22.7285C212.932 22.6482 209.833 22.6211 209.322 22.6211C209.241 22.6211 209.213 22.6484 209.213 22.7285V24.667C209.213 29.9919 209.267 30.7201 209.403 30.8564C209.483 30.9367 209.78 30.9918 210.022 31.0186C210.642 31.0989 211.451 31.1533 212.61 31.1533C215.17 31.1533 216.328 30.991 217.082 30.5869C216.894 31.2061 216.679 32.1477 216.571 32.6865C216.462 32.7133 216.247 32.7402 215.197 32.7402C211.425 32.7402 209.456 32.5791 208.406 32.5791C207.625 32.5791 207.005 32.6051 206.708 32.6318C206.789 31.6893 206.924 28.676 206.924 24.8545V20.1191C206.924 15.7322 206.844 13.0947 206.656 12.3408C206.978 12.422 207.707 12.3945 208.245 12.3945H214.228C214.794 12.3945 215.871 12.3677 216.383 12.2598ZM78.8088 11.9385C78.9437 11.9386 79.0508 12.1546 79.4553 13.042C79.7519 13.6888 82.4195 19.77 84.7102 25.2061C85.9225 28.0592 87.4326 31.5845 88.133 32.6348C87.6212 32.6071 87.1895 32.5811 86.8938 32.5811C86.2202 32.5811 85.4652 32.5808 85.1418 32.6611C84.7101 31.45 83.2552 27.7366 82.3127 25.584C82.2859 25.5304 82.2311 25.5029 82.2043 25.5029H75.1174V25.502C75.0362 25.502 75.0095 25.5295 74.9827 25.583C74.1473 27.8973 72.8531 31.3686 72.5832 32.6338C72.2868 32.5527 72.0714 32.5801 71.5061 32.5801C70.9406 32.5801 70.2927 32.6344 70.0774 32.6611C70.751 31.2346 71.7745 28.8664 72.8528 26.2568L78.1887 13.042C78.5121 12.2623 78.6203 11.9385 78.8088 11.9385ZM179.464 11.9385C179.599 11.9385 179.707 12.1543 180.112 13.042C180.408 13.6888 183.076 19.7699 185.366 25.2061C186.58 28.0593 188.089 31.5847 188.789 32.6348C188.277 32.6071 187.847 32.5811 187.549 32.5811C186.876 32.5811 186.122 32.5809 185.798 32.6611C185.366 31.4501 183.911 27.7367 182.968 25.584C182.94 25.5306 182.887 25.5031 182.861 25.5029H175.773L175.772 25.502C175.691 25.502 175.664 25.5295 175.637 25.583C174.802 27.8973 173.509 31.3685 173.239 32.6338C172.943 32.5526 172.727 32.5801 172.16 32.5801C171.594 32.5801 170.949 32.6344 170.733 32.6611C171.406 31.2346 172.431 28.8664 173.508 26.2568L178.844 13.042C179.167 12.2627 179.276 11.9389 179.464 11.9385ZM130.121 12.3154C130.04 13.3115 129.933 16.2716 129.933 20.1191V24.8545C129.933 28.299 130.04 31.825 130.175 32.6328C129.933 32.6052 129.421 32.5791 128.989 32.5791C128.451 32.5791 127.669 32.6334 127.426 32.6602C127.507 31.7189 127.614 28.3806 127.614 24.8555V20.0928C127.614 16.2983 127.588 12.9873 127.372 12.3682C127.615 12.3949 128.181 12.3955 128.504 12.3955C129.258 12.3955 129.933 12.3422 130.121 12.3154ZM134.081 12.1533C134.755 12.288 135.699 12.3955 138.043 12.3955H146.801C148.391 12.3955 150.305 12.3153 150.817 12.1797C150.682 12.7989 150.574 13.6873 150.546 14.5205C150.115 14.2244 149.387 14.1177 147.582 14.0098C146.612 13.9295 145.345 13.9014 143.297 13.9014V24.8545C143.297 28.2723 143.379 31.6896 143.514 32.6328C143.217 32.5516 142.813 32.5791 142.408 32.5791C141.761 32.5791 141.223 32.6066 140.765 32.6602C140.9 31.7448 140.981 28.3538 140.981 24.8555V13.9023C139.741 13.9023 139.04 13.8757 137.261 13.9561C135.456 14.0372 134.379 14.145 133.651 14.3867C133.812 13.9289 134 12.7179 134.081 12.1523V12.1533ZM235.437 12.3145C234.709 13.0408 233.713 14.4408 232.769 15.8672L228.807 21.6797C229.292 22.6755 231.448 26.0118 232.58 27.7881C234.601 30.9639 235.598 32.1215 236.11 32.6328C235.706 32.5517 235.059 32.5791 234.628 32.5791C234.17 32.5791 232.93 32.5799 232.634 32.6602L230.776 29.2422L227.406 23.5107L223.525 29.8887C222.771 31.1536 222.178 32.3375 222.07 32.6338C221.773 32.5527 221.45 32.5801 220.938 32.5801V32.5791C220.399 32.5791 219.725 32.5798 219.321 32.6602C219.832 32.1222 221.045 30.4535 222.555 28.166L226.462 22.084L222.528 15.8672C221.449 14.1452 220.506 12.96 219.886 12.3408C220.398 12.3684 220.964 12.3945 221.584 12.3945C222.204 12.3945 222.743 12.368 223.12 12.3145C223.983 14.1711 226.139 17.6432 227.89 20.333C228.752 19.2038 230.504 16.2441 230.801 15.7861C231.529 14.5486 232.525 12.9065 232.66 12.3408C232.85 12.3685 233.254 12.3945 233.658 12.3945C234.412 12.3945 235.139 12.3412 235.437 12.3145ZM113.061 22.4336C112.981 22.4603 112.953 22.4869 112.953 22.541V24.8555C112.953 29.5103 113.007 30.6957 113.088 30.7764C113.385 31.0726 114.409 31.3154 115.946 31.3154C118.236 31.3153 120.418 29.969 120.418 27.0635C120.418 25.8528 120.15 24.6142 118.641 23.457H118.64C117.697 22.7041 116.592 22.5411 115.433 22.46C114.571 22.3797 113.304 22.4336 113.061 22.4336ZM75.5754 23.832C75.5486 23.9132 75.5755 23.9404 75.6291 23.9404H81.6389C81.6925 23.9404 81.7203 23.9132 81.6926 23.832L78.5129 16.002L75.5754 23.832ZM176.23 23.832C176.202 23.9132 176.23 23.9404 176.283 23.9404H182.293C182.347 23.9404 182.374 23.9131 182.347 23.832L179.167 16.002L176.23 23.832ZM96.3254 13.7148C95.4901 13.7148 94.7615 13.7429 94.3577 13.8232C94.2775 13.85 94.2503 13.9031 94.2502 14.0107V22.3271L94.2512 22.3262C94.2512 22.4609 94.2787 22.5425 94.3323 22.5684C94.8713 22.6763 96.2194 22.7568 97.6467 22.7568C98.4282 22.7568 98.859 22.6763 99.2092 22.4346C100.288 21.6539 101.257 20.2542 101.257 18.3164C101.257 15.4376 99.4511 13.715 96.3254 13.7148ZM158.712 13.7148C157.877 13.7148 157.15 13.743 156.745 13.8232C156.664 13.85 156.637 13.903 156.637 14.0107V22.3271L156.638 22.3262C156.638 22.4608 156.664 22.5424 156.718 22.5684C157.258 22.6763 158.605 22.7568 160.032 22.7568C160.813 22.7568 161.245 22.6762 161.595 22.4346C162.673 21.6539 163.644 20.2543 163.644 18.3164C163.644 15.4375 161.838 13.7148 158.712 13.7148ZM114.732 13.7129C113.843 13.7129 113.223 13.741 113.033 13.8213C112.98 13.8481 112.953 13.9015 112.953 13.9824V20.791L112.954 20.792C112.954 20.873 112.981 20.9 113.062 20.9268C113.574 20.9268 115.784 20.9805 116.188 20.9805C116.699 20.9805 116.888 20.9523 117.211 20.7373C118.316 20.011 118.855 18.7191 118.855 17.5352C118.855 15.2476 117.453 13.7129 114.732 13.7129Z" class="logo-name"/>
</svg>
