<svg width="446" height="652" viewBox="0 0 446 652" fill="none" xmlns="http://www.w3.org/2000/svg">
<path d="M102.976 651.99C21.6741 651.99 -57.2231 623.327 -119.201 571.28C-127.603 564.2 -135.782 556.615 -143.508 548.755C-148.761 543.445 -153.889 537.858 -158.824 532.091L-53.4858 427.818V346.423L-100.67 393.13L-150.248 442.245L-177.925 469.634L-193.009 484.594C-196.553 478.665 -199.933 472.575 -203.101 466.37C-208.567 455.816 -213.434 444.977 -217.577 434.118C-232.458 395.738 -240 355.34 -240 313.99C-240 202.77 -184.26 98.6115 -90.8969 35.3453C-80.0715 28.0081 -68.8597 21.2894 -57.5611 15.3796C-54.0943 13.5619 -50.6274 11.7823 -47.0833 10.1074C-44.2924 8.75603 -41.434 7.42371 -38.5273 6.12946V507.891H105.603V522.632H-53.4858V448.707L-138.39 532.748L-133.185 538.077C-125.121 546.338 -116.517 554.236 -107.623 561.555C-105.16 563.648 -102.591 565.713 -100.081 567.626C-99.4046 568.188 -98.7093 568.72 -98.014 569.253L-97.3863 569.729C-39.5219 613.905 29.7473 637.24 102.976 637.24C114.786 637.24 126.529 636.621 137.963 635.403L144.81 634.67V252.342L34.682 361.393V435.736H105.603V450.477H19.7234V-13.9029C27.4876 -15.8443 35.5125 -17.5287 43.663 -18.9182C54.4305 -20.7929 65.6421 -22.1633 77.018 -23.0103C85.5451 -23.6669 94.275 -24 102.986 -24C144.423 -24 184.925 -16.7674 223.369 -2.50207C239.766 3.55047 255.787 10.9163 270.997 19.3956C378.952 79.4166 446 192.302 446 314C446 340.694 442.823 367.217 436.556 392.845C433.919 403.732 430.617 414.79 426.734 425.706C423.77 434.118 420.429 442.436 416.769 450.506H233.007V507.9H383.79C379.493 513.934 375.012 519.805 370.396 525.458C360.951 537.021 350.628 548.079 339.725 558.309C318.992 577.866 295.883 594.748 271.007 608.509C260.5 614.41 249.288 619.901 237.642 624.84C231.201 627.561 224.644 630.093 218.048 632.405V77.5608L34.6723 259.118V340.513L81.8561 293.806L159.759 216.655V647.356C151.985 648.641 144.143 649.659 136.399 650.392C125.361 651.458 114.139 652 103.053 652H102.976V651.99ZM233.007 611.022L243.987 605.835C255.913 600.201 267.656 593.778 278.877 586.735C287.346 581.454 295.603 575.734 303.406 569.758C317.012 559.413 329.953 547.841 341.811 535.374L353.94 522.641H233.007V611.022ZM-65.0935 36.4968C-76.9909 43.5201 -88.7337 51.4949 -99.984 60.2216C-179.47 122.108 -225.041 214.609 -225.041 314.01C-225.041 348.85 -219.421 383.081 -208.325 415.751C-204.443 427.361 -199.702 439.076 -194.255 450.553L-189.61 460.346L-53.4955 325.563V29.6544L-65.1032 36.4968H-65.0935ZM233.007 435.755H406.909L408.811 430.94C413.263 419.672 417.087 408.1 420.177 396.537C427.381 369.815 431.032 342.036 431.032 314C431.032 203.094 374.152 101.143 278.877 41.2742C267.791 34.2985 256.048 27.8653 243.987 22.1744L240.269 20.4424C228.564 15.1036 216.619 10.488 204.663 6.69094C171.994 -3.87246 137.76 -9.2398 102.976 -9.2398C94.0142 -9.2398 84.8691 -8.86865 75.8013 -8.13588C64.0295 -7.18422 52.277 -5.60447 40.8914 -3.43469L34.6723 -2.25464V238.22L210.033 64.5897C217.893 67.873 225.59 71.5178 233.007 75.4767V435.764V435.755Z" fill="#F7F5E8" fill-opacity="0.08"/>
</svg>
